<svg id="圖層_1" width="105px"  height="105px" data-name="圖層 1" xmlns="http://www.w3.org/2000/svg" viewBox="0 0 115 115"><defs><style>.cls-1{fill:#fff;}.cls-2{fill:#4379ff;}</style></defs><title>go_115</title><path class="cls-1" d="M108.5,166A57.5,57.5,0,1,1,166,108.5,57.56,57.56,0,0,1,108.5,166Z" transform="translate(-51 -51)"/><path class="cls-2" d="M108.5,55.88a52.62,52.62,0,1,0,52.62,52.62A52.62,52.62,0,0,0,108.5,55.88Zm28.9,57.86L94.57,138.47c-3.76,2.17-6.83.4-6.83-3.94V85.07c0-4.34,3.07-6.11,6.83-3.94l42.83,24.73C141.15,108,141.15,111.58,137.4,113.74Z" transform="translate(-51 -51)"/></svg>