<svg id="Layer_1" data-name="Layer 1" xmlns="http://www.w3.org/2000/svg" viewBox="0 0 115 115"><defs><style>.cls-1{fill:#f20101;}.cls-2{fill:#fff;}.cls-3{fill:none;stroke:#fff;stroke-linecap:round;stroke-linejoin:round;stroke-width:2.31px;}</style></defs><title>live_115</title><circle class="cls-1" cx="57.5" cy="57.5" r="57.5"/><path class="cls-2" d="M113.64,149.43h-9.28a5.07,5.07,0,0,1-4.93-6.29l4.65-17.77a5.07,5.07,0,0,1,4.92-3.86h0a5.08,5.08,0,0,1,4.93,3.86l4.64,17.77A5.07,5.07,0,0,1,113.64,149.43Z" transform="translate(-51.5 -51.5)"/><circle class="cls-2" cx="57.5" cy="56.86" r="7.95"/><path class="cls-3" d="M125.72,138.77A34.49,34.49,0,0,0,109.6,74.11l-.6,0-.6,0a34.49,34.49,0,0,0-16.12,64.66" transform="translate(-51.5 -51.5)"/><path class="cls-3" d="M96.08,125.69a21.55,21.55,0,1,1,25.84,0" transform="translate(-51.5 -51.5)"/></svg>